<svg xmlns="http://www.w3.org/2000/svg" height="48" viewBox="0 -960 960 960" width="48"><path d="m421.5-132-15-111q-23.5-7-51.5-22.5t-47-34l-101.5 46-59-105 90-66.5q-2.5-13.475-3.75-26.987Q232.5-465.5 232.5-479q0-12 1.25-26t3.25-30l-89.5-68.5 59-102 101 44q21.5-17 47.5-32.5t50.5-22.5l16-111.5h118l15 112q26 9.5 49.25 23T649-661.5l106.5-44 58 102-94 70.541Q722.5-518 724-505t1.5 24.75q0 10.75-1.75 23.838-1.75 13.087-4.75 29.994l93 67.918-59 105-104-47q-22.971 20.364-46.486 35.182Q579-250.5 554.5-244l-15 112h-118Zm55.991-263q36.045 0 60.527-24.5T562.5-480q0-36-24.5-60.5T477.5-565q-36 0-60.5 24.5T392.5-480q0 36 24.5 60.5t60.491 24.5Zm.009-22q-26.5 0-44.75-18.5T414.5-480q0-26 18.25-44.5T477.5-543q26.5 0 44.75 18.5T540.5-480q0 26-18.25 44.5T477.5-417Zm3-63.5ZM439.242-154h80.79l15.691-111.5q29.862-8.066 54.112-21.693Q614.085-300.82 641-326l102.5 44 39.5-68.511L693-418q3.5-19 6-33.709 2.5-14.71 2.5-28.66 0-16.131-2.25-29.881T693-540l92-69-39.5-69-105 44q-19-20-49.75-39t-56.25-22.5L521.429-806H439l-11.5 110.07q-33 6.43-58.25 20.68T318-635l-102.5-43-40.5 69 90.5 65.5q-5 14-7 30.138-2 16.139-2 33.832 0 17.03 1.75 31.78T264-418l-89 67 40.141 69L317.5-325q23.5 25.5 49.5 39.25T426.277-264l12.965 110Z"/></svg>