# Blender 3.5.0
# www.blender.org
mtllib raum001.mtl
o Teppich
v -5.000000 -4.000000 0.000000
v -5.000000 -4.000000 0.100000
v 1.000000 -4.000000 0.000000
v 1.000000 -4.000000 0.100000
v -5.000000 -8.000000 0.000000
v -5.000000 -8.000000 0.100000
v 1.000000 -8.000000 0.000000
v 1.000000 -8.000000 0.100000
vn -0.0000 1.0000 -0.0000
vn 1.0000 -0.0000 -0.0000
vn -0.0000 -1.0000 -0.0000
vn -1.0000 -0.0000 -0.0000
vn -0.0000 -0.0000 -1.0000
vn -0.0000 -0.0000 1.0000
s 0
usemtl Parkettfußboden,_auf_Blindboden_[0.20/0.15/0.10/0.09/0.06/0.1]
f 1//1 2//1 4//1 3//1
f 3//2 4//2 8//2 7//2
f 7//3 8//3 6//3 5//3
f 5//4 6//4 2//4 1//4
f 3//5 7//5 5//5 1//5
f 8//6 4//6 2//6 6//6
o WandNY1
v -7.000000 4.000000 0.000000
v -7.000000 4.000000 6.000000
v -5.000000 4.000000 0.000000
v -5.000000 4.000000 6.000000
v -7.000000 -4.000000 0.000000
v -7.000000 -4.000000 6.000000
v -5.000000 -4.000000 0.000000
v -5.000000 -4.000000 6.000000
v -7.000000 6.000000 0.000000
v -7.000000 6.000000 6.000000
v -7.000000 6.000000 0.000000
v -7.000000 6.000000 6.000000
v -7.000000 4.000000 0.000000
v -7.000000 4.000000 6.000000
v -5.000000 4.000000 0.000000
v -5.000000 4.000000 6.000000
vn -0.0000 1.0000 -0.0000
vn 1.0000 -0.0000 -0.0000
vn -0.0000 -1.0000 -0.0000
vn -1.0000 -0.0000 -0.0000
vn -0.0000 -0.0000 -1.0000
vn -0.0000 -0.0000 1.0000
vn 0.7071 0.7071 -0.0000
s 0
usemtl Glattputz_[0.02/0.02/0.03/0.03/0.04/0.06]
f 9//7 10//7 12//7 11//7
f 11//8 12//8 16//8 15//8
f 15//9 16//9 14//9 13//9
f 13//10 14//10 10//10 9//10
f 11//11 15//11 13//11 9//11
f 16//12 12//12 10//12 14//12
f 17//12 18//12 20//12 19//12
f 19//13 20//13 24//13 23//13
f 23//9 24//9 22//9 21//9
f 21//10 22//10 18//10 17//10
f 19//11 23//11 21//11 17//11
f 24//12 20//12 18//12 22//12
o WandPY0
v 5.000000 -4.000000 0.000000
v 5.000000 -4.000000 6.000000
v 7.000000 -4.000000 0.000000
v 7.000000 -4.000000 6.000000
v 5.000000 -4.000000 0.000000
v 5.000000 -4.000000 6.000000
v 7.000000 -6.000000 0.000000
v 7.000000 -6.000000 6.000000
v 7.000000 6.000000 0.000000
v 7.000000 6.000000 6.000000
v 7.000000 6.000000 0.000000
v 7.000000 6.000000 6.000000
v 5.000000 4.000000 0.000000
v 5.000000 4.000000 6.000000
v 7.000000 4.000000 0.000000
v 7.000000 4.000000 6.000000
v 5.000000 4.000000 0.000000
v 5.000000 4.000000 6.000000
v 7.000000 4.000000 0.000000
v 7.000000 4.000000 6.000000
v 5.000000 -4.000000 0.000000
v 5.000000 -4.000000 6.000000
v 7.000000 -4.000000 0.000000
v 7.000000 -4.000000 6.000000
vn -0.0000 1.0000 -0.0000
vn 1.0000 -0.0000 -0.0000
vn -0.7071 -0.7071 -0.0000
vn -0.0000 -0.0000 1.0000
vn -0.0000 -0.0000 -1.0000
vn -0.0000 -1.0000 -0.0000
vn -0.7071 0.7071 -0.0000
vn -1.0000 -0.0000 -0.0000
s 0
usemtl Glattputz_[0.02/0.02/0.03/0.03/0.04/0.06]
f 25//14 26//14 28//14 27//14
f 27//15 28//15 32//15 31//15
f 31//16 32//16 30//16 29//16
f 29//17 30//17 26//17 25//17
f 27//18 31//18 29//18 25//18
f 32//17 28//17 26//17 30//17
f 33//17 34//17 36//17 35//17
f 35//15 36//15 40//15 39//15
f 39//19 40//19 38//19 37//19
f 37//20 38//20 34//20 33//20
f 35//18 39//18 37//18 33//18
f 40//17 36//17 34//17 38//17
f 41//14 42//14 44//14 43//14
f 43//15 44//15 48//15 47//15
f 47//19 48//19 46//19 45//19
f 45//21 46//21 42//21 41//21
f 43//18 47//18 45//18 41//18
f 48//17 44//17 42//17 46//17
o WandNX0
v -7.000000 6.000000 0.000000
v -7.000000 6.000000 6.000000
v -5.000000 6.000000 0.000000
v -5.000000 6.000000 6.000000
v -7.000000 6.000000 0.000000
v -7.000000 6.000000 6.000000
v -5.000000 4.000000 0.000000
v -5.000000 4.000000 6.000000
v -5.000000 6.000000 0.000000
v -5.000000 6.000000 6.000000
v 5.000000 6.000000 0.000000
v 5.000000 6.000000 6.000000
v -5.000000 4.000000 0.000000
v -5.000000 4.000000 6.000000
v 5.000000 4.000000 0.000000
v 5.000000 4.000000 6.000000
v 5.000000 6.000000 0.000000
v 5.000000 6.000000 6.000000
v 7.000000 6.000000 0.000000
v 7.000000 6.000000 6.000000
v 5.000000 4.000000 0.000000
v 5.000000 4.000000 6.000000
v 5.000000 4.000000 0.000000
v 5.000000 4.000000 6.000000
vn -0.0000 1.0000 -0.0000
vn 1.0000 -0.0000 -0.0000
vn -0.7071 -0.7071 -0.0000
vn -0.0000 -0.0000 1.0000
vn -0.0000 -0.0000 -1.0000
vn -0.0000 -1.0000 -0.0000
vn -1.0000 -0.0000 -0.0000
vn 0.7071 -0.7071 -0.0000
s 0
usemtl Glattputz_[0.02/0.02/0.03/0.03/0.04/0.06]
f 49//22 50//22 52//22 51//22
f 51//23 52//23 56//23 55//23
f 55//24 56//24 54//24 53//24
f 53//25 54//25 50//25 49//25
f 51//26 55//26 53//26 49//26
f 56//25 52//25 50//25 54//25
f 57//22 58//22 60//22 59//22
f 59//23 60//23 64//23 63//23
f 63//27 64//27 62//27 61//27
f 61//28 62//28 58//28 57//28
f 59//26 63//26 61//26 57//26
f 64//25 60//25 58//25 62//25
f 65//22 66//22 68//22 67//22
f 67//29 68//29 72//29 71//29
f 71//25 72//25 70//25 69//25
f 69//28 70//28 66//28 65//28
f 67//26 71//26 69//26 65//26
f 72//25 68//25 66//25 70//25
o WandNY0
v -7.000000 -8.000000 0.000000
v -7.000000 -8.000000 6.000000
v -5.000000 -8.000000 0.000000
v -5.000000 -8.000000 6.000000
v -7.000000 -10.000000 0.000000
v -7.000000 -10.000000 6.000000
v -7.000000 -10.000000 0.000000
v -7.000000 -10.000000 6.000000
v -7.000000 -4.000000 0.000000
v -7.000000 -4.000000 6.000000
v -5.000000 -4.000000 0.000000
v -5.000000 -4.000000 6.000000
v -7.000000 -8.000000 0.000000
v -7.000000 -8.000000 6.000000
v -5.000000 -8.000000 0.000000
v -5.000000 -8.000000 6.000000
vn -0.0000 1.0000 -0.0000
vn 0.7071 -0.7071 -0.0000
vn -0.0000 -0.0000 1.0000
vn -1.0000 -0.0000 -0.0000
vn -0.0000 -0.0000 -1.0000
vn 1.0000 -0.0000 -0.0000
vn -0.0000 -1.0000 -0.0000
s 0
usemtl Glattputz_[0.02/0.02/0.03/0.03/0.04/0.06]
f 73//30 74//30 76//30 75//30
f 75//31 76//31 80//31 79//31
f 79//32 80//32 78//32 77//32
f 77//33 78//33 74//33 73//33
f 75//34 79//34 77//34 73//34
f 80//32 76//32 74//32 78//32
f 81//30 82//30 84//30 83//30
f 83//35 84//35 88//35 87//35
f 87//36 88//36 86//36 85//36
f 85//33 86//33 82//33 81//33
f 83//34 87//34 85//34 81//34
f 88//32 84//32 82//32 86//32
o WandPX0
v 1.000000 -4.000000 0.000000
v 1.000000 -4.000000 6.000000
v 3.000000 -4.000000 0.000000
v 3.000000 -4.000000 6.000000
v 1.000000 -4.000000 0.000000
v 1.000000 -4.000000 6.000000
v 3.000000 -6.000000 0.000000
v 3.000000 -6.000000 6.000000
v 5.000000 -4.000000 0.000000
v 5.000000 -4.000000 6.000000
v 7.000000 -6.000000 0.000000
v 7.000000 -6.000000 6.000000
v 5.000000 -6.000000 0.000000
v 5.000000 -6.000000 6.000000
v 7.000000 -6.000000 0.000000
v 7.000000 -6.000000 6.000000
v 3.000000 -4.000000 0.000000
v 3.000000 -4.000000 6.000000
v 5.000000 -4.000000 0.000000
v 5.000000 -4.000000 6.000000
v 3.000000 -6.000000 0.000000
v 3.000000 -6.000000 6.000000
v 5.000000 -6.000000 0.000000
v 5.000000 -6.000000 6.000000
vn -0.0000 1.0000 -0.0000
vn 1.0000 -0.0000 -0.0000
vn -0.7071 -0.7071 -0.0000
vn -0.0000 -0.0000 1.0000
vn -0.0000 -0.0000 -1.0000
vn 0.7071 0.7071 -0.0000
vn -0.0000 -1.0000 -0.0000
vn -1.0000 -0.0000 -0.0000
s 0
usemtl Glattputz_[0.02/0.02/0.03/0.03/0.04/0.06]
f 89//37 90//37 92//37 91//37
f 91//38 92//38 96//38 95//38
f 95//39 96//39 94//39 93//39
f 93//40 94//40 90//40 89//40
f 91//41 95//41 93//41 89//41
f 96//40 92//40 90//40 94//40
f 97//42 98//42 100//42 99//42
f 99//40 100//40 104//40 103//40
f 103//43 104//43 102//43 101//43
f 101//44 102//44 98//44 97//44
f 99//41 103//41 101//41 97//41
f 104//40 100//40 98//40 102//40
f 105//37 106//37 108//37 107//37
f 107//38 108//38 112//38 111//38
f 111//43 112//43 110//43 109//43
f 109//44 110//44 106//44 105//44
f 107//41 111//41 109//41 105//41
f 112//40 108//40 106//40 110//40
o WandPY1
v 1.000000 -6.000000 0.000000
v 1.000000 -6.000000 6.000000
v 3.000000 -6.000000 0.000000
v 3.000000 -6.000000 6.000000
v 1.000000 -8.000000 0.000000
v 1.000000 -8.000000 6.000000
v 3.000000 -8.000000 0.000000
v 3.000000 -8.000000 6.000000
v 1.000000 -8.000000 0.000000
v 1.000000 -8.000000 6.000000
v 3.000000 -8.000000 0.000000
v 3.000000 -8.000000 6.000000
v 1.000000 -8.000000 0.000000
v 1.000000 -8.000000 6.000000
v 3.000000 -10.000000 0.000000
v 3.000000 -10.000000 6.000000
v 1.000000 -4.000000 0.000000
v 1.000000 -4.000000 6.000000
v 3.000000 -6.000000 0.000000
v 3.000000 -6.000000 6.000000
v 1.000000 -6.000000 0.000000
v 1.000000 -6.000000 6.000000
v 3.000000 -6.000000 0.000000
v 3.000000 -6.000000 6.000000
vn -0.0000 1.0000 -0.0000
vn 1.0000 -0.0000 -0.0000
vn -0.0000 -1.0000 -0.0000
vn -1.0000 -0.0000 -0.0000
vn -0.0000 -0.0000 -1.0000
vn -0.0000 -0.0000 1.0000
vn -0.7071 -0.7071 -0.0000
vn 0.7071 0.7071 -0.0000
s 0
usemtl Glattputz_[0.02/0.02/0.03/0.03/0.04/0.06]
f 113//45 114//45 116//45 115//45
f 115//46 116//46 120//46 119//46
f 119//47 120//47 118//47 117//47
f 117//48 118//48 114//48 113//48
f 115//49 119//49 117//49 113//49
f 120//50 116//50 114//50 118//50
f 121//45 122//45 124//45 123//45
f 123//46 124//46 128//46 127//46
f 127//51 128//51 126//51 125//51
f 125//50 126//50 122//50 121//50
f 123//49 127//49 125//49 121//49
f 128//50 124//50 122//50 126//50
f 129//52 130//52 132//52 131//52
f 131//50 132//50 136//50 135//50
f 135//47 136//47 134//47 133//47
f 133//48 134//48 130//48 129//48
f 131//49 135//49 133//49 129//49
f 136//50 132//50 130//50 134//50
o Boden
v -7.000000 -6.000000 -2.000000
v -7.000000 -6.000000 0.000000
v 3.000000 -6.000000 -2.000000
v 3.000000 -6.000000 0.000000
v -7.000000 -10.000000 -2.000000
v -7.000000 -10.000000 0.000000
v 3.000000 -10.000000 -2.000000
v 3.000000 -10.000000 0.000000
v -7.000000 6.000000 -2.000000
v -7.000000 6.000000 0.000000
v 7.000000 6.000000 -2.000000
v 7.000000 6.000000 0.000000
v -7.000000 -6.000000 -2.000000
v -7.000000 -6.000000 0.000000
v 7.000000 -6.000000 -2.000000
v 7.000000 -6.000000 0.000000
vn -0.0000 1.0000 -0.0000
vn 1.0000 -0.0000 -0.0000
vn -0.0000 -1.0000 -0.0000
vn -1.0000 -0.0000 -0.0000
vn -0.0000 -0.0000 -1.0000
vn -0.0000 -0.0000 1.0000
s 0
usemtl Parkettfußboden,_auf_Blindboden_[0.20/0.15/0.10/0.09/0.06/0.1]
f 137//53 138//53 140//53 139//53
f 139//54 140//54 144//54 143//54
f 143//55 144//55 142//55 141//55
f 141//56 142//56 138//56 137//56
f 139//57 143//57 141//57 137//57
f 144//58 140//58 138//58 142//58
f 145//53 146//53 148//53 147//53
f 147//54 148//54 152//54 151//54
f 151//55 152//55 150//55 149//55
f 149//56 150//56 146//56 145//56
f 147//57 151//57 149//57 145//57
f 152//58 148//58 146//58 150//58
o FensterPX0
v -5.000000 -8.950000 1.500000
v -5.000000 -8.950000 5.500000
v 1.000000 -8.950000 1.500000
v 1.000000 -8.950000 5.500000
v -5.000000 -9.050000 1.500000
v -5.000000 -9.050000 5.500000
v 1.000000 -9.050000 1.500000
v 1.000000 -9.050000 5.500000
vn -0.0000 1.0000 -0.0000
vn 1.0000 -0.0000 -0.0000
vn -0.0000 -1.0000 -0.0000
vn -1.0000 -0.0000 -0.0000
vn -0.0000 -0.0000 -1.0000
vn -0.0000 -0.0000 1.0000
s 0
usemtl Fenster_[0.28/0.20/0.11/0.06/0.03/0.02]
f 153//59 154//59 156//59 155//59
f 155//60 156//60 160//60 159//60
f 159//61 160//61 158//61 157//61
f 157//62 158//62 154//62 153//62
f 155//63 159//63 157//63 153//63
f 160//64 156//64 154//64 158//64
o WandPX1
v 1.000000 -8.000000 0.000000
v 1.000000 -8.000000 6.000000
v 3.000000 -10.000000 0.000000
v 3.000000 -10.000000 6.000000
v 1.000000 -10.000000 0.000000
v 1.000000 -10.000000 6.000000
v 3.000000 -10.000000 0.000000
v 3.000000 -10.000000 6.000000
v -5.000000 -8.000000 0.000000
v -5.000000 -8.000000 1.500000
v 1.000000 -8.000000 0.000000
v 1.000000 -8.000000 1.500000
v -5.000000 -10.000000 0.000000
v -5.000000 -10.000000 1.500000
v 1.000000 -10.000000 0.000000
v 1.000000 -10.000000 1.500000
v -5.000000 -8.000000 0.000000
v -5.000000 -8.000000 6.000000
v -5.000000 -8.000000 0.000000
v -5.000000 -8.000000 6.000000
v -7.000000 -10.000000 0.000000
v -7.000000 -10.000000 6.000000
v -5.000000 -10.000000 0.000000
v -5.000000 -10.000000 6.000000
v -5.000000 -8.000000 5.500000
v -5.000000 -8.000000 6.000000
v 1.000000 -8.000000 5.500000
v 1.000000 -8.000000 6.000000
v -5.000000 -10.000000 5.500000
v -5.000000 -10.000000 6.000000
v 1.000000 -10.000000 5.500000
v 1.000000 -10.000000 6.000000
vn 0.7071 0.7071 -0.0000
vn -0.0000 -0.0000 1.0000
vn -0.0000 -1.0000 -0.0000
vn -1.0000 -0.0000 -0.0000
vn -0.0000 -0.0000 -1.0000
vn -0.0000 1.0000 -0.0000
vn 1.0000 -0.0000 -0.0000
vn -0.7071 0.7071 -0.0000
s 0
usemtl Glattputz_[0.02/0.02/0.03/0.03/0.04/0.06]
f 161//65 162//65 164//65 163//65
f 163//66 164//66 168//66 167//66
f 167//67 168//67 166//67 165//67
f 165//68 166//68 162//68 161//68
f 163//69 167//69 165//69 161//69
f 168//66 164//66 162//66 166//66
f 169//70 170//70 172//70 171//70
f 171//71 172//71 176//71 175//71
f 175//67 176//67 174//67 173//67
f 173//68 174//68 170//68 169//68
f 171//69 175//69 173//69 169//69
f 176//66 172//66 170//66 174//66
f 177//66 178//66 180//66 179//66
f 179//71 180//71 184//71 183//71
f 183//67 184//67 182//67 181//67
f 181//72 182//72 178//72 177//72
f 179//69 183//69 181//69 177//69
f 184//66 180//66 178//66 182//66
f 185//70 186//70 188//70 187//70
f 187//71 188//71 192//71 191//71
f 191//67 192//67 190//67 189//67
f 189//68 190//68 186//68 185//68
f 187//69 191//69 189//69 185//69
f 192//66 188//66 186//66 190//66
